# xmcd
#
# Track frame offsets: 
#        150
#        22042
#        35401
#        58626
#        76422
#        84570
#        99271
#        121459
#        135677
#        162996
#
# Disc length: 2330 seconds
#
# Revision: 0
# Processed by: cddbd v1.5.2PL0 Copyright (c) Steve Scherf et al.
# Submitted via: ExactAudioCopy v0.99pb4
#
DISCID=7b09180a
DTITLE=The Gun Club - The Las Vegas Story (2009 Reissue Edition)
DYEAR=2009
DGENRE=Punk
TTITLE0=The Las Vegas Story - Walkin' With The Beast
TTITLE1=Eternally Is Here
TTITLE2=The Stranger In Our Town
TTITLE3=My Dreams
TTITLE4=The Master Plan
TTITLE5=My Man's Gone Now
TTITLE6=Bad America
TTITLE7=Moonlight Motel
TTITLE8=Give Up The Sun
TTITLE9=Secret Fires
EXTD=
EXTT0=
EXTT1=
EXTT2=
EXTT3=
EXTT4=
EXTT5=
EXTT6=
EXTT7=
EXTT8=
EXTT9=
PLAYORDER=
